<mxfile host="app.diagrams.net" modified="2021-12-07T20:10:59.543Z" agent="5.0 (Windows NT 10.0; Win64; x64) AppleWebKit/537.36 (KHTML, like Gecko) Chrome/96.0.4664.45 Safari/537.36" etag="-rSVrh3GxluM8QUg4Ca4" version="15.9.1" type="github">
  <diagram id="Pqgwarm-VvWjeonbAqSf" name="Page-1">
    <mxGraphModel dx="1278" dy="579" grid="1" gridSize="10" guides="1" tooltips="1" connect="1" arrows="1" fold="1" page="1" pageScale="1" pageWidth="850" pageHeight="1100" math="0" shadow="0">
      <root>
        <mxCell id="0" />
        <mxCell id="1" parent="0" />
        <mxCell id="UmapNXlsr0jz2IB11q6k-4" value="" style="edgeStyle=orthogonalEdgeStyle;rounded=0;orthogonalLoop=1;jettySize=auto;html=1;" edge="1" parent="1" source="UmapNXlsr0jz2IB11q6k-1" target="UmapNXlsr0jz2IB11q6k-3">
          <mxGeometry relative="1" as="geometry" />
        </mxCell>
        <mxCell id="UmapNXlsr0jz2IB11q6k-1" value="Actor" style="shape=umlActor;verticalLabelPosition=bottom;verticalAlign=top;html=1;outlineConnect=0;" vertex="1" parent="1">
          <mxGeometry x="395" y="30" width="30" height="60" as="geometry" />
        </mxCell>
        <mxCell id="UmapNXlsr0jz2IB11q6k-2" value="Exchange crypto" style="text;html=1;strokeColor=none;fillColor=none;align=center;verticalAlign=middle;whiteSpace=wrap;rounded=0;" vertex="1" parent="1">
          <mxGeometry x="50" y="20" width="60" height="30" as="geometry" />
        </mxCell>
        <mxCell id="UmapNXlsr0jz2IB11q6k-6" value="" style="edgeStyle=orthogonalEdgeStyle;rounded=0;orthogonalLoop=1;jettySize=auto;html=1;" edge="1" parent="1" source="UmapNXlsr0jz2IB11q6k-3" target="UmapNXlsr0jz2IB11q6k-5">
          <mxGeometry relative="1" as="geometry" />
        </mxCell>
        <mxCell id="UmapNXlsr0jz2IB11q6k-3" value="&lt;br&gt;Fill out exchange form" style="whiteSpace=wrap;html=1;verticalAlign=top;" vertex="1" parent="1">
          <mxGeometry x="350" y="210" width="120" height="60" as="geometry" />
        </mxCell>
        <mxCell id="UmapNXlsr0jz2IB11q6k-8" value="Is invalid" style="edgeStyle=orthogonalEdgeStyle;rounded=0;orthogonalLoop=1;jettySize=auto;html=1;entryX=1;entryY=0.5;entryDx=0;entryDy=0;" edge="1" parent="1" source="UmapNXlsr0jz2IB11q6k-5" target="UmapNXlsr0jz2IB11q6k-3">
          <mxGeometry relative="1" as="geometry">
            <mxPoint x="650" y="400" as="targetPoint" />
            <Array as="points">
              <mxPoint x="600" y="400" />
              <mxPoint x="600" y="240" />
            </Array>
          </mxGeometry>
        </mxCell>
        <mxCell id="UmapNXlsr0jz2IB11q6k-10" value="Is valid" style="edgeStyle=orthogonalEdgeStyle;rounded=0;orthogonalLoop=1;jettySize=auto;html=1;" edge="1" parent="1" source="UmapNXlsr0jz2IB11q6k-5" target="UmapNXlsr0jz2IB11q6k-9">
          <mxGeometry relative="1" as="geometry" />
        </mxCell>
        <mxCell id="UmapNXlsr0jz2IB11q6k-5" value="&lt;br&gt;&lt;br&gt;Valid" style="rhombus;whiteSpace=wrap;html=1;verticalAlign=top;" vertex="1" parent="1">
          <mxGeometry x="370" y="360" width="80" height="80" as="geometry" />
        </mxCell>
        <mxCell id="UmapNXlsr0jz2IB11q6k-9" value="&lt;br&gt;Process transaction" style="whiteSpace=wrap;html=1;verticalAlign=top;" vertex="1" parent="1">
          <mxGeometry x="350" y="580" width="120" height="60" as="geometry" />
        </mxCell>
      </root>
    </mxGraphModel>
  </diagram>
</mxfile>
